<mxfile host="app.diagrams.net" modified="2024-03-07T19:50:21.256Z" agent="Mozilla/5.0 (Windows NT 10.0; Win64; x64) AppleWebKit/537.36 (KHTML, like Gecko) Chrome/121.0.0.0 Safari/537.36" etag="RtVdJF96Z9xcYLX2Qz-d" version="24.0.1" type="github">
  <diagram name="Page-1" id="2YBvvXClWsGukQMizWep">
    <mxGraphModel dx="1900" dy="541" grid="1" gridSize="10" guides="1" tooltips="1" connect="1" arrows="1" fold="1" page="1" pageScale="1" pageWidth="850" pageHeight="1100" math="0" shadow="0">
      <root>
        <mxCell id="0" />
        <mxCell id="1" parent="0" />
        <mxCell id="aM9ryv3xv72pqoxQDRHE-1" value="UI:AddCardScreen" style="shape=umlLifeline;perimeter=lifelinePerimeter;whiteSpace=wrap;html=1;container=0;dropTarget=0;collapsible=0;recursiveResize=0;outlineConnect=0;portConstraint=eastwest;newEdgeStyle={&quot;edgeStyle&quot;:&quot;elbowEdgeStyle&quot;,&quot;elbow&quot;:&quot;vertical&quot;,&quot;curved&quot;:0,&quot;rounded&quot;:0};" parent="1" vertex="1">
          <mxGeometry x="330" y="100" width="100" height="670" as="geometry" />
        </mxCell>
        <mxCell id="aM9ryv3xv72pqoxQDRHE-5" value=":ProgramEntry" style="shape=umlLifeline;perimeter=lifelinePerimeter;whiteSpace=wrap;html=1;container=0;dropTarget=0;collapsible=0;recursiveResize=0;outlineConnect=0;portConstraint=eastwest;newEdgeStyle={&quot;edgeStyle&quot;:&quot;elbowEdgeStyle&quot;,&quot;elbow&quot;:&quot;vertical&quot;,&quot;curved&quot;:0,&quot;rounded&quot;:0};" parent="1" vertex="1">
          <mxGeometry x="550" y="100" width="100" height="670" as="geometry" />
        </mxCell>
        <mxCell id="YUh8d4OaZrOM5soigd_F-1" value="Add Card Ref" style="shape=umlFrame;whiteSpace=wrap;html=1;pointerEvents=0;" parent="1" vertex="1">
          <mxGeometry x="280" y="160" width="800" height="530" as="geometry" />
        </mxCell>
        <mxCell id="YUh8d4OaZrOM5soigd_F-2" value=":FlashCard" style="shape=umlLifeline;perimeter=lifelinePerimeter;whiteSpace=wrap;html=1;container=1;dropTarget=0;collapsible=0;recursiveResize=0;outlineConnect=0;portConstraint=eastwest;newEdgeStyle={&quot;curved&quot;:0,&quot;rounded&quot;:0};" parent="1" vertex="1">
          <mxGeometry x="740" y="100" width="100" height="670" as="geometry" />
        </mxCell>
        <mxCell id="XK77gLLdWc2-d-Yq1FGP-7" value="" style="html=1;points=[[0,0,0,0,5],[0,1,0,0,-5],[1,0,0,0,5],[1,1,0,0,-5]];perimeter=orthogonalPerimeter;outlineConnect=0;targetShapes=umlLifeline;portConstraint=eastwest;newEdgeStyle={&quot;curved&quot;:0,&quot;rounded&quot;:0};" vertex="1" parent="YUh8d4OaZrOM5soigd_F-2">
          <mxGeometry x="45" y="250" width="10" height="260" as="geometry" />
        </mxCell>
        <mxCell id="YUh8d4OaZrOM5soigd_F-3" value=":Level" style="shape=umlLifeline;perimeter=lifelinePerimeter;whiteSpace=wrap;html=1;container=1;dropTarget=0;collapsible=0;recursiveResize=0;outlineConnect=0;portConstraint=eastwest;newEdgeStyle={&quot;curved&quot;:0,&quot;rounded&quot;:0};" parent="1" vertex="1">
          <mxGeometry x="860" y="100" width="100" height="670" as="geometry" />
        </mxCell>
        <mxCell id="XK77gLLdWc2-d-Yq1FGP-8" value="" style="html=1;points=[[0,0,0,0,5],[0,1,0,0,-5],[1,0,0,0,5],[1,1,0,0,-5]];perimeter=orthogonalPerimeter;outlineConnect=0;targetShapes=umlLifeline;portConstraint=eastwest;newEdgeStyle={&quot;curved&quot;:0,&quot;rounded&quot;:0};" vertex="1" parent="YUh8d4OaZrOM5soigd_F-3">
          <mxGeometry x="45" y="380" width="10" height="130" as="geometry" />
        </mxCell>
        <mxCell id="YUh8d4OaZrOM5soigd_F-4" value=":Data" style="shape=umlLifeline;perimeter=lifelinePerimeter;whiteSpace=wrap;html=1;container=1;dropTarget=0;collapsible=0;recursiveResize=0;outlineConnect=0;portConstraint=eastwest;newEdgeStyle={&quot;curved&quot;:0,&quot;rounded&quot;:0};" parent="1" vertex="1">
          <mxGeometry x="970" y="100" width="100" height="660" as="geometry" />
        </mxCell>
        <mxCell id="XK77gLLdWc2-d-Yq1FGP-17" value="" style="html=1;points=[[0,0,0,0,5],[0,1,0,0,-5],[1,0,0,0,5],[1,1,0,0,-5]];perimeter=orthogonalPerimeter;outlineConnect=0;targetShapes=umlLifeline;portConstraint=eastwest;newEdgeStyle={&quot;curved&quot;:0,&quot;rounded&quot;:0};" vertex="1" parent="YUh8d4OaZrOM5soigd_F-4">
          <mxGeometry x="45" y="470" width="10" height="80" as="geometry" />
        </mxCell>
        <mxCell id="YUh8d4OaZrOM5soigd_F-5" value="User" style="shape=umlActor;verticalLabelPosition=bottom;verticalAlign=top;html=1;outlineConnect=0;" parent="1" vertex="1">
          <mxGeometry x="-90" y="110" width="30" height="60" as="geometry" />
        </mxCell>
        <mxCell id="YUh8d4OaZrOM5soigd_F-7" value="" style="endArrow=none;dashed=1;html=1;dashPattern=1 3;strokeWidth=2;rounded=0;" parent="1" edge="1">
          <mxGeometry width="50" height="50" relative="1" as="geometry">
            <mxPoint x="-70" y="580" as="sourcePoint" />
            <mxPoint x="-70" y="200" as="targetPoint" />
          </mxGeometry>
        </mxCell>
        <mxCell id="548Dcg6xIAPnq4ezfdzh-2" value="" style="endArrow=classic;html=1;rounded=0;" parent="1" target="aM9ryv3xv72pqoxQDRHE-1" edge="1">
          <mxGeometry width="50" height="50" relative="1" as="geometry">
            <mxPoint x="-70" y="240" as="sourcePoint" />
            <mxPoint x="400" y="280" as="targetPoint" />
            <Array as="points">
              <mxPoint x="100" y="240" />
            </Array>
          </mxGeometry>
        </mxCell>
        <mxCell id="XK77gLLdWc2-d-Yq1FGP-2" value="Enter &quot;Card to show&quot; and &quot;Card to reveal&quot;" style="edgeLabel;html=1;align=center;verticalAlign=middle;resizable=0;points=[];" vertex="1" connectable="0" parent="548Dcg6xIAPnq4ezfdzh-2">
          <mxGeometry x="-0.3558" y="-3" relative="1" as="geometry">
            <mxPoint x="45" y="-13" as="offset" />
          </mxGeometry>
        </mxCell>
        <mxCell id="548Dcg6xIAPnq4ezfdzh-5" value="" style="endArrow=classic;html=1;rounded=0;" parent="1" target="aM9ryv3xv72pqoxQDRHE-1" edge="1">
          <mxGeometry width="50" height="50" relative="1" as="geometry">
            <mxPoint x="-70" y="280" as="sourcePoint" />
            <mxPoint x="200" y="310" as="targetPoint" />
          </mxGeometry>
        </mxCell>
        <mxCell id="XK77gLLdWc2-d-Yq1FGP-3" value="Select &quot;Level&quot;" style="edgeLabel;html=1;align=center;verticalAlign=middle;resizable=0;points=[];" vertex="1" connectable="0" parent="548Dcg6xIAPnq4ezfdzh-5">
          <mxGeometry x="-0.1066" y="4" relative="1" as="geometry">
            <mxPoint x="-11" y="-6" as="offset" />
          </mxGeometry>
        </mxCell>
        <mxCell id="548Dcg6xIAPnq4ezfdzh-6" value="" style="endArrow=classic;html=1;rounded=0;" parent="1" target="aM9ryv3xv72pqoxQDRHE-1" edge="1">
          <mxGeometry width="50" height="50" relative="1" as="geometry">
            <mxPoint x="-70" y="320" as="sourcePoint" />
            <mxPoint x="400" y="280" as="targetPoint" />
          </mxGeometry>
        </mxCell>
        <mxCell id="XK77gLLdWc2-d-Yq1FGP-4" value="Click &quot;Add Card&quot;" style="edgeLabel;html=1;align=center;verticalAlign=middle;resizable=0;points=[];" vertex="1" connectable="0" parent="548Dcg6xIAPnq4ezfdzh-6">
          <mxGeometry x="-0.1155" relative="1" as="geometry">
            <mxPoint y="-10" as="offset" />
          </mxGeometry>
        </mxCell>
        <mxCell id="548Dcg6xIAPnq4ezfdzh-8" value="" style="endArrow=classic;html=1;rounded=0;" parent="1" edge="1">
          <mxGeometry width="50" height="50" relative="1" as="geometry">
            <mxPoint x="380" y="340" as="sourcePoint" />
            <mxPoint x="600" y="340" as="targetPoint" />
            <Array as="points">
              <mxPoint x="440" y="340" />
            </Array>
          </mxGeometry>
        </mxCell>
        <mxCell id="XK77gLLdWc2-d-Yq1FGP-5" value="createCard(details, level)" style="edgeLabel;html=1;align=center;verticalAlign=middle;resizable=0;points=[];" vertex="1" connectable="0" parent="548Dcg6xIAPnq4ezfdzh-8">
          <mxGeometry x="0.1662" relative="1" as="geometry">
            <mxPoint x="-9" y="-10" as="offset" />
          </mxGeometry>
        </mxCell>
        <mxCell id="XK77gLLdWc2-d-Yq1FGP-6" value="" style="html=1;points=[[0,0,0,0,5],[0,1,0,0,-5],[1,0,0,0,5],[1,1,0,0,-5]];perimeter=orthogonalPerimeter;outlineConnect=0;targetShapes=umlLifeline;portConstraint=eastwest;newEdgeStyle={&quot;curved&quot;:0,&quot;rounded&quot;:0};" vertex="1" parent="1">
          <mxGeometry x="595" y="315" width="10" height="285" as="geometry" />
        </mxCell>
        <mxCell id="XK77gLLdWc2-d-Yq1FGP-9" value="" style="fontSize=12;html=1;endArrow=blockThin;endFill=1;rounded=0;" edge="1" parent="1" source="XK77gLLdWc2-d-Yq1FGP-6">
          <mxGeometry width="160" relative="1" as="geometry">
            <mxPoint x="605" y="390" as="sourcePoint" />
            <mxPoint x="790" y="390" as="targetPoint" />
          </mxGeometry>
        </mxCell>
        <mxCell id="XK77gLLdWc2-d-Yq1FGP-10" value="createFlashCard()" style="edgeLabel;html=1;align=center;verticalAlign=middle;resizable=0;points=[];" vertex="1" connectable="0" parent="XK77gLLdWc2-d-Yq1FGP-9">
          <mxGeometry x="-0.0678" y="1" relative="1" as="geometry">
            <mxPoint y="-9" as="offset" />
          </mxGeometry>
        </mxCell>
        <mxCell id="XK77gLLdWc2-d-Yq1FGP-11" value="flashCardInstance" style="html=1;verticalAlign=bottom;endArrow=open;dashed=1;endSize=8;curved=0;rounded=0;" edge="1" parent="1" source="YUh8d4OaZrOM5soigd_F-2" target="XK77gLLdWc2-d-Yq1FGP-6">
          <mxGeometry relative="1" as="geometry">
            <mxPoint x="730" y="424.5" as="sourcePoint" />
            <mxPoint x="650" y="424.5" as="targetPoint" />
          </mxGeometry>
        </mxCell>
        <mxCell id="XK77gLLdWc2-d-Yq1FGP-12" value="" style="fontSize=12;html=1;endArrow=blockThin;endFill=1;rounded=0;exitX=0.26;exitY=0.338;exitDx=0;exitDy=0;exitPerimeter=0;" edge="1" parent="1" target="YUh8d4OaZrOM5soigd_F-3">
          <mxGeometry width="160" relative="1" as="geometry">
            <mxPoint x="605" y="480" as="sourcePoint" />
            <mxPoint x="760" y="480" as="targetPoint" />
          </mxGeometry>
        </mxCell>
        <mxCell id="XK77gLLdWc2-d-Yq1FGP-13" value="organize(flashCardInstance)" style="edgeLabel;html=1;align=center;verticalAlign=middle;resizable=0;points=[];" vertex="1" connectable="0" parent="XK77gLLdWc2-d-Yq1FGP-12">
          <mxGeometry x="-0.0678" y="1" relative="1" as="geometry">
            <mxPoint x="-47" y="-9" as="offset" />
          </mxGeometry>
        </mxCell>
        <mxCell id="XK77gLLdWc2-d-Yq1FGP-14" value="orgnized" style="html=1;verticalAlign=bottom;endArrow=open;dashed=1;endSize=8;curved=0;rounded=0;" edge="1" parent="1" target="XK77gLLdWc2-d-Yq1FGP-6">
          <mxGeometry x="0.4075" y="1" relative="1" as="geometry">
            <mxPoint x="909.5" y="510" as="sourcePoint" />
            <mxPoint x="605" y="510" as="targetPoint" />
            <mxPoint x="1" as="offset" />
          </mxGeometry>
        </mxCell>
        <mxCell id="XK77gLLdWc2-d-Yq1FGP-15" value="" style="fontSize=12;html=1;endArrow=blockThin;endFill=1;rounded=0;" edge="1" parent="1">
          <mxGeometry width="160" relative="1" as="geometry">
            <mxPoint x="605" y="549" as="sourcePoint" />
            <mxPoint x="910" y="549" as="targetPoint" />
          </mxGeometry>
        </mxCell>
        <mxCell id="XK77gLLdWc2-d-Yq1FGP-16" value="organize(flashCardInstance)" style="edgeLabel;html=1;align=center;verticalAlign=middle;resizable=0;points=[];" vertex="1" connectable="0" parent="XK77gLLdWc2-d-Yq1FGP-15">
          <mxGeometry x="-0.0678" y="1" relative="1" as="geometry">
            <mxPoint x="-47" y="-9" as="offset" />
          </mxGeometry>
        </mxCell>
      </root>
    </mxGraphModel>
  </diagram>
</mxfile>
